<?xml version="1.0" encoding="UTF-8"?>
<svg id="Laag_2" data-name="Laag 2" xmlns="http://www.w3.org/2000/svg" viewBox="0 0 210.09 96.55">
  <defs>
    <style>
      .cls-1, .cls-2 {
        fill-rule: evenodd;
      }

      .cls-1, .cls-2, .cls-3 {
        stroke-width: 0px;
      }

      .cls-1, .cls-3, .cls-4 {
        fill: #b2b8d0;
      }

      .cls-2 {
        fill: #c60c4b;
      }

      .cls-4 {
        stroke: #b2b8d0;
        stroke-miterlimit: 10;
        stroke-width: .32px;
      }
    </style>
  </defs>
  <g id="Layer_1" data-name="Layer 1">
    <g>
      <path class="cls-2" d="M67.23,0h30.27c5.67,1.6,2.81,11.73,3.46,17.73,1.04,9.61,6.15,13.76,12.97,17.73-22.77,0-42.05,1.36-44.11-17.73-.62-5.71,1.77-14.52-2.6-17.73Z"/>
      <path class="cls-1" d="M113.51,0h30.27c-4.37,1.56-2.01,11.91-2.59,17.3-1.78,16.42-24.59,25.5-35.03,10.38,7.39-4.28-.11-23.46,7.35-27.68Z"/>
      <path class="cls-2" d="M145.68.07h29.84c5.41,1.98,3.46,17.62,3.46,29.84,0,21.33-3.12,37.68,10.38,42.81h-28.11c-16.84-2.87-12.97-22.68-12.97-44.11,0-9.9,1.56-25.91-2.6-28.54Z"/>
      <path class="cls-2" d="M64.42,72.72h-29.84c-5.41-1.98-3.46-17.62-3.46-29.84C31.11,21.55,34.24,5.2,20.74.07h28.11c16.84,2.87,12.97,22.68,12.97,44.11,0,9.9-1.56,25.91,2.6,28.54Z"/>
      <g>
        <path class="cls-4" d="M33.28,93.45c.95.6,2.21,1.11,3.38,1.11s1.73-.6,1.74-1.32c0-.57-.33-1.11-1.29-1.52l-1.98-.84c-1.39-.6-2.34-1.49-2.34-3,0-1.98,1.67-3.38,3.93-3.38,1.49,0,2.88.47,3.75.92-.03.64-.33,1.29-.79,1.71-.87-.42-2.06-.8-2.95-.8-1.09,0-1.66.6-1.66,1.27,0,.57.4.94,1.19,1.27l1.98.84c1.52.65,2.51,1.74,2.51,3.21,0,1.99-1.41,3.48-4.25,3.48-1.37,0-2.95-.45-4.14-1.24.07-.65.47-1.34.91-1.71Z"/>
        <path class="cls-4" d="M44.96,96.16c-.3.05-.7.08-1.09.08s-.79-.03-1.11-.08v-5.83c0-.57-.19-.92-.75-.92h-.22c-.07-.25-.1-.49-.1-.75,0-.25.03-.54.1-.79.47-.05.95-.08,1.27-.08h.29c.99,0,1.61.67,1.61,1.76v6.61ZM42.43,84.62c.25-.13.7-.22,1.09-.22s.87.08,1.09.22c.12.27.17.6.17.87,0,.28-.05.6-.17.87-.22.13-.7.23-1.09.23s-.87-.1-1.09-.23c-.12-.27-.17-.59-.17-.87s.05-.6.17-.87Z"/>
        <path class="cls-4" d="M50.29,89.26c-.92,0-1.34.89-1.34,2.78s.59,2.61,1.66,2.61c.7,0,1.39-.37,1.94-.77.35.22.75.8.85,1.26-.75.75-1.92,1.26-3.13,1.26-2.41,0-3.56-1.86-3.56-4.35,0-3.18,1.83-4.42,3.63-4.42,1.96,0,3.15,1.24,3.15,2.65,0,.74-.42,1.12-1.09,1.12-.37,0-.62-.02-.88-.08.01-1.19-.19-2.04-1.22-2.04Z"/>
        <path class="cls-4" d="M61.59,94.23c.2.59.38,1.07.8,1.37-.33.38-.9.67-1.47.67-.69,0-.95-.32-1.22-1.07l-.57-1.54c-.3-.79-.59-.97-1.21-.97-.23,0-.43.02-.63.03v3.43c-.3.05-.69.08-1.07.08s-.75-.03-1.05-.08v-12.21l.1-.12h.86c.87,0,1.17.39,1.17,1.36v5.71l.42-.02c.2,0,.32-.07.44-.27l1.15-1.99c.3-.55.65-.84,1.31-.84.45,0,.8.02,1.21.03l.1.13-1.56,2.68c-.19.35-.42.62-.71.82.67.22,1.16.69,1.46,1.47l.49,1.31Z"/>
        <path class="cls-4" d="M66.86,94.55c.12.3.18.69.18,1.05,0,.17-.02.35-.05.48-.45.07-1.07.15-1.62.15-1.3,0-1.88-.65-1.88-2.04v-10.25l.12-.12h.84c.89,0,1.19.39,1.19,1.36v8.59c0,.5.2.77.7.77h.52Z"/>
        <path class="cls-4" d="M70.14,92.71c.07,1.14.44,1.98,1.71,1.98.8,0,1.56-.25,2.26-.57.33.34.55.89.62,1.32-.84.6-2.04.95-3.21.95-2.81,0-3.6-2.11-3.6-4.35,0-2.51,1.12-4.42,3.62-4.42,2.19,0,3.41,1.54,3.41,3.55,0,.65-.05,1.02-.18,1.54h-4.62ZM70.13,91.17h2.78v-.2c0-.97-.38-1.78-1.37-1.78-.9,0-1.34.7-1.41,1.98Z"/>
        <path class="cls-4" d="M84.71,86.28c-1.59,0-2.33,1.47-2.33,4.22,0,2.56.94,3.93,2.53,3.93,1.11,0,2.04-.55,2.91-1.22.47.3.95.94,1.07,1.46-.94.94-2.59,1.72-4.37,1.72-3.38,0-4.5-2.98-4.5-5.91,0-4.19,2.18-6.01,4.76-6.01s4.17,1.56,4.17,3.38c0,.84-.44,1.26-1.27,1.26-.34,0-.59-.05-.89-.12.03-1.34-.43-2.71-2.08-2.71Z"/>
        <path class="cls-4" d="M92.21,92.71c.07,1.14.44,1.98,1.71,1.98.8,0,1.56-.25,2.26-.57.33.34.55.89.62,1.32-.83.6-2.04.95-3.21.95-2.81,0-3.6-2.11-3.6-4.35,0-2.51,1.12-4.42,3.62-4.42,2.19,0,3.42,1.54,3.42,3.55,0,.65-.05,1.02-.18,1.54h-4.62ZM92.2,91.17h2.78v-.2c0-.97-.39-1.78-1.38-1.78-.9,0-1.34.7-1.41,1.98Z"/>
        <path class="cls-4" d="M102.19,94.55c.12.3.18.69.18,1.05,0,.17-.02.35-.05.48-.45.07-1.07.15-1.62.15-1.31,0-1.88-.65-1.88-2.04v-10.25l.12-.12h.84c.89,0,1.19.39,1.19,1.36v8.59c0,.5.2.77.7.77h.52Z"/>
        <path class="cls-4" d="M107.12,94.55c.12.3.18.69.18,1.05,0,.17-.02.35-.05.48-.45.07-1.07.15-1.62.15-1.31,0-1.88-.65-1.88-2.04v-10.25l.12-.12h.84c.89,0,1.19.39,1.19,1.36v8.59c0,.5.2.77.71.77h.52Z"/>
        <path class="cls-4" d="M114.55,93.56l-.79,2.61c-.28.07-.62.08-.97.08s-.8-.05-1.07-.15l-.08-.12,3.73-11.27c.37-.05.92-.08,1.31-.08.35,0,.94.03,1.29.1l3.67,11.27c-.32.18-.86.29-1.29.29-.72,0-1.07-.25-1.34-1.21l-.47-1.52c-.25,0-.65.02-.82.02h-2.34c-.17,0-.55,0-.82-.02ZM115.1,91.79c.23,0,.59-.02.75-.02h1.44c.15,0,.47.02.7.02l-.5-1.71c-.29-.95-.65-2.24-.91-3.25h-.1c-.17.85-.52,2.06-.74,2.83l-.65,2.13Z"/>
        <path class="cls-4" d="M121.8,87.97c.45-.18.87-.27,1.24-.27.65,0,.92.32,1.04.92l.64,3.08c.22,1.06.4,2.09.49,2.7.03.12.05.13.13.13l1.16-6.63c.35-.07,1-.1,1.29-.1s.97.03,1.29.1l1.16,6.5c.02.12.03.13.13.13.15-.87.32-1.82.52-2.83l.84-3.85c.23-.07.59-.1.87-.1.32,0,.84.03,1.14.18l.07.13-2.01,8.09c-.43.07-1.11.08-1.62.08-.84,0-1.27-.13-1.42-1.05l-.37-2.06c-.15-.85-.37-2.13-.54-3.32h-.1c-.17,1.17-.4,2.44-.55,3.3l-.57,3.05c-.47.07-1.16.08-1.69.08-.79,0-1.22-.18-1.44-1.09l-1.67-7.18Z"/>
        <path class="cls-4" d="M141.02,96.29c-.79-.08-1.29-.45-1.59-.95-.59.57-1.39,1.05-2.48,1.05-1.69,0-2.51-1.31-2.51-2.51,0-1.96,1.51-2.83,3.26-2.83.39,0,.91,0,1.41.05v-.45c0-.87-.42-1.27-1.24-1.27-.77,0-1.68.29-2.55.59-.32-.35-.52-1-.57-1.56,1.04-.44,2.56-.75,3.67-.75,1.54,0,2.86.82,2.86,2.83v3.43c0,.55.12.97.47,1.24-.1.4-.43.92-.74,1.14ZM139.11,94v-1.46c-.42-.03-.87-.05-1.2-.05-.87,0-1.31.49-1.31,1.26,0,.55.34.99.94.99.5,0,1.09-.25,1.57-.74Z"/>
        <path class="cls-4" d="M143.75,87.72c.94.12,1.54.67,1.86,1.51.37-.85,1.02-1.49,2.13-1.49.42,0,.69.03,1,.12,0,.54-.17,1.44-.54,2.04-.25-.08-.52-.1-.77-.12-.75,0-1.22.43-1.57,1.04v5.34c-.3.05-.72.08-1.11.08s-.77-.03-1.09-.08v-5.58c0-.94-.35-1.49-.62-1.72.08-.39.4-.92.71-1.14Z"/>
        <path class="cls-4" d="M151.35,92.71c.07,1.14.43,1.98,1.71,1.98.8,0,1.56-.25,2.26-.57.33.34.55.89.62,1.32-.84.6-2.04.95-3.21.95-2.81,0-3.6-2.11-3.6-4.35,0-2.51,1.12-4.42,3.62-4.42,2.19,0,3.41,1.54,3.41,3.55,0,.65-.05,1.02-.18,1.54h-4.62ZM151.34,91.17h2.78v-.2c0-.97-.38-1.78-1.37-1.78-.91,0-1.34.7-1.41,1.98Z"/>
        <path class="cls-4" d="M164.9,94.22c0,.62.08,1.19.35,1.59-.32.27-.84.47-1.37.47-.87,0-1.17-.47-1.17-1.36v-3.9c0-.94-.18-1.36-.87-1.36-.48,0-1.14.27-1.66.8v5.69c-.3.05-.71.08-1.09.08s-.79-.03-1.09-.08v-8.29l.1-.12h.84c.67,0,1.04.37,1.17,1,.7-.6,1.54-1.06,2.51-1.06,1.54,0,2.28,1.21,2.28,2.86v3.65Z"/>
        <path class="cls-4" d="M168.83,92.71c.07,1.14.44,1.98,1.71,1.98.8,0,1.56-.25,2.26-.57.33.34.55.89.62,1.32-.84.6-2.04.95-3.22.95-2.81,0-3.6-2.11-3.6-4.35,0-2.51,1.12-4.42,3.62-4.42,2.19,0,3.42,1.54,3.42,3.55,0,.65-.05,1.02-.18,1.54h-4.62ZM168.82,91.17h2.78v-.2c0-.97-.38-1.78-1.37-1.78-.9,0-1.34.7-1.41,1.98Z"/>
        <path class="cls-4" d="M175.4,94.07c.72.39,1.61.72,2.33.72.79,0,1.22-.33,1.24-.8,0-.4-.3-.72-.91-.94l-.94-.35c-1.17-.44-2.11-1.14-2.11-2.46,0-1.61,1.27-2.61,3.12-2.61.94,0,2.19.3,2.91.65.02.52-.27,1.26-.62,1.54-.64-.29-1.48-.59-2.29-.59-.59,0-.94.32-.94.75,0,.37.27.6.84.82l1.02.37c1.25.47,2.18,1.25,2.18,2.61,0,1.61-1.34,2.61-3.3,2.61-1.27,0-2.43-.39-3.18-.82.02-.49.32-1.17.65-1.51Z"/>
        <path class="cls-4" d="M182.76,94.07c.72.39,1.61.72,2.33.72.79,0,1.22-.33,1.24-.8,0-.4-.3-.72-.91-.94l-.94-.35c-1.17-.44-2.11-1.14-2.11-2.46,0-1.61,1.27-2.61,3.11-2.61.94,0,2.2.3,2.91.65.02.52-.27,1.26-.62,1.54-.64-.29-1.47-.59-2.29-.59-.58,0-.94.32-.94.75,0,.37.27.6.84.82l1.02.37c1.26.47,2.18,1.25,2.18,2.61,0,1.61-1.34,2.61-3.3,2.61-1.27,0-2.43-.39-3.18-.82.02-.49.32-1.17.65-1.51Z"/>
      </g>
      <g>
        <path class="cls-1" d="M67.23,72.5h30.27c5.67-1.6,2.81-11.73,3.46-17.73,1.04-9.61,6.15-13.76,12.97-17.73-22.77,0-42.05-1.36-44.11,17.73-.62,5.71,1.77,14.52-2.6,17.73Z"/>
        <path class="cls-2" d="M113.51,72.5h30.27c-4.37-1.56-2.01-11.91-2.59-17.3-1.78-16.42-24.59-25.49-35.03-10.38,7.39,4.28-.11,23.46,7.35,27.68Z"/>
      </g>
      <path class="cls-3" d="M20.28,1.27l-1.95-.74C9.44-.91-.94,4.13.07,15.5h29.63c-.87-6.94-3.29-11.9-9.42-14.23Z"/>
      <path class="cls-3" d="M210.02,57.28h-29.63c.87,6.94,3.29,11.9,9.42,14.23l1.95.74c8.89,1.44,19.27-3.6,18.26-14.97Z"/>
    </g>
  </g>
</svg>